# xmcd CD database file
#
# Track frame offsets:
#	182
#	38860
#	84610
#	125655
#	175305
#	199210
#	230280
#	248477
#	259007
#	289195
#
# Disc length: 4390 seconds
#
# Revision: 0
# Processed by: cddbd v1.4PL0 Copyright (c) Steve Scherf et al.
# Submitted via: CDex 1.50Beta7
#
DISCID=8911240a
DTITLE=Red Holloway Quartet - With Harry Sweets Edison
DYEAR=1900
DGENRE=Jazz
TTITLE0=Hitting The Road Again
TTITLE1=River's Invitation
TTITLE2=Wave
TTITLE3=Out Of Nowhere
TTITLE4=Greazzy Blues
TTITLE5=I  Wish  I Knew
TTITLE6=Well, You Needn't
TTITLE7=This Is No Shit
TTITLE8=Nica's Dream
TTITLE9=Outro Vamp/Jazzspeak
EXTD=
EXTT0=
EXTT1=
EXTT2=
EXTT3=
EXTT4=
EXTT5=
EXTT6=
EXTT7=
EXTT8=
EXTT9=
PLAYORDER=
